<svg width="146" height="32" fill="none" xmlns="http://www.w3.org/2000/svg"><g clip-path="url(#clip0_2615_2)"><path d="M14.761 25.417c-5.502 0-9.846-4.065-9.846-10.161 0-5.806 3.765-10.161 9.846-10.161 2.607 0 5.213 1.161 6.95 2.903l3.476-3.484C22.58 1.901 18.814.16 14.76.16 6.074.16-.008 6.546-.008 15.256c0 9.29 6.66 15.096 14.77 15.096 4.053 0 7.818-1.742 10.424-4.355l-3.475-3.483c-1.737 1.742-4.343 2.903-6.95 2.903zM30.11.45v29.612h4.922c7.24 0 17.086-2.032 17.086-14.806C52.118 2.192 41.983.45 35.032.45H30.11zm4.922 24.676V5.095s12.163-1.742 12.163 9.87c.29 11.903-12.163 10.161-12.163 10.161zm33.014-3.193c6.081 0 11.004-4.935 11.004-11.032S74.127-.13 68.046-.13c-6.082 0-11.005 4.935-11.005 11.032s4.923 11.032 11.005 11.032zm0-17.129c3.475 0 6.081 2.613 6.081 6.097 0 3.484-2.606 6.097-6.081 6.097-3.475 0-6.082-2.613-6.082-6.097 0-3.193 2.896-6.097 6.082-6.097zm9.556 20.322H58.2v4.936h19.402v-4.936z" fill="#74D414"/></g><path d="M103.471 12.023c-1.073 0-2.043-.237-2.91-.712a5.301 5.301 0 01-2.029-1.966c-.485-.846-.727-1.79-.727-2.833 0-1.043.242-1.982.727-2.818a5.24 5.24 0 012.044-1.982c.867-.475 1.837-.712 2.911-.712.805 0 1.548.134 2.229.403a4.62 4.62 0 011.734 1.176l-.728.728c-.846-.857-1.914-1.285-3.204-1.285a4.71 4.71 0 00-2.338.588 4.355 4.355 0 00-1.657 1.61c-.392.682-.588 1.445-.588 2.292 0 .846.196 1.61.588 2.291a4.355 4.355 0 001.657 1.61 4.71 4.71 0 002.338.588c1.3 0 2.368-.433 3.204-1.3l.728.728a4.757 4.757 0 01-1.749 1.192 6.037 6.037 0 01-2.23.402zm6.421-10.93h4.413c1.145 0 2.157.232 3.034.697a4.956 4.956 0 012.044 1.92c.485.815.728 1.749.728 2.802 0 1.052-.243 1.992-.728 2.817a5.092 5.092 0 01-2.044 1.92c-.877.454-1.889.681-3.034.681h-4.413V1.093zm4.351 9.847c.949 0 1.78-.186 2.492-.558a4.17 4.17 0 001.657-1.564c.392-.67.588-1.44.588-2.306 0-.867-.196-1.631-.588-2.292a4.032 4.032 0 00-1.657-1.563c-.712-.382-1.543-.573-2.492-.573h-3.205v8.856h3.205zm13.178 1.083c-1.074 0-2.049-.237-2.926-.712a5.384 5.384 0 01-2.044-1.982c-.485-.836-.728-1.775-.728-2.817 0-1.043.243-1.982.728-2.818a5.271 5.271 0 012.044-1.966c.877-.485 1.852-.728 2.926-.728 1.073 0 2.038.237 2.895.712a5.244 5.244 0 012.044 1.982c.495.836.743 1.775.743 2.818 0 1.042-.248 1.987-.743 2.833a5.278 5.278 0 01-2.044 1.966c-.857.475-1.822.712-2.895.712zm0-1.021c.856 0 1.631-.192 2.322-.573a4.27 4.27 0 001.626-1.61 4.598 4.598 0 00.588-2.307c0-.847-.196-1.61-.588-2.292a4.13 4.13 0 00-1.626-1.61c-.691-.392-1.466-.588-2.322-.588a4.71 4.71 0 00-2.338.588 4.234 4.234 0 00-1.641 1.61c-.392.682-.588 1.445-.588 2.292 0 .846.196 1.615.588 2.306a4.38 4.38 0 001.641 1.61c.702.382 1.481.573 2.338.573zm-21.024 14.51h1.1v4.133a5.303 5.303 0 01-1.796 1.022 6.682 6.682 0 01-2.183.356c-1.084 0-2.06-.237-2.927-.712a5.276 5.276 0 01-2.043-1.966c-.496-.846-.743-1.79-.743-2.833 0-1.043.247-1.982.743-2.818a5.242 5.242 0 012.043-1.982c.867-.475 1.848-.712 2.942-.712.826 0 1.584.134 2.276.402a4.448 4.448 0 011.749 1.162l-.712.727c-.856-.846-1.945-1.27-3.266-1.27-.878 0-1.673.197-2.385.59a4.21 4.21 0 00-1.656 1.61c-.403.68-.604 1.444-.604 2.29 0 .847.201 1.61.604 2.292a4.354 4.354 0 001.656 1.61c.702.392 1.492.588 2.369.588 1.115 0 2.059-.278 2.833-.836v-3.653zm4.11-6.069h1.099V30.93h-1.099V19.443zm7.486 11.565c-.784 0-1.491-.176-2.121-.527a3.953 3.953 0 01-1.486-1.486c-.361-.63-.542-1.342-.542-2.136 0-.795.181-1.507.542-2.137a3.83 3.83 0 011.486-1.47c.63-.352 1.337-.527 2.121-.527.785 0 1.492.175 2.121.526a3.73 3.73 0 011.471 1.471c.361.63.542 1.342.542 2.137 0 .794-.181 1.506-.542 2.136a3.838 3.838 0 01-1.471 1.486c-.629.351-1.336.527-2.121.527zm0-.976c.578 0 1.094-.129 1.548-.387a2.786 2.786 0 001.084-1.13c.258-.485.387-1.037.387-1.656 0-.62-.129-1.172-.387-1.657a2.685 2.685 0 00-1.084-1.115 2.984 2.984 0 00-1.548-.402c-.578 0-1.099.134-1.563.402a2.81 2.81 0 00-1.084 1.115c-.258.485-.387 1.037-.387 1.657 0 .619.129 1.171.387 1.656a2.92 2.92 0 001.084 1.13c.464.258.985.387 1.563.387zm10.574-7.307a4.13 4.13 0 012.074.526c.62.34 1.105.826 1.456 1.456s.526 1.346.526 2.152c0 .805-.175 1.522-.526 2.152a3.76 3.76 0 01-1.456 1.47 4.13 4.13 0 01-2.074.527 3.889 3.889 0 01-1.843-.434 3.37 3.37 0 01-1.3-1.254v1.61h-1.053V19.443h1.099v4.892a3.35 3.35 0 011.301-1.192 3.838 3.838 0 011.796-.418zm-.078 7.307c.568 0 1.084-.129 1.549-.387a2.79 2.79 0 001.083-1.13c.269-.485.403-1.037.403-1.656 0-.62-.134-1.172-.403-1.657a2.688 2.688 0 00-1.083-1.115 3.042 3.042 0 00-1.549-.402c-.578 0-1.099.134-1.563.402-.454.258-.816.63-1.084 1.115-.258.485-.387 1.037-.387 1.657 0 .619.129 1.171.387 1.656.268.485.63.862 1.084 1.13.464.258.985.387 1.563.387zm9.178-7.307c1.063 0 1.879.268 2.447.805.567.526.851 1.31.851 2.353v5.047h-1.053v-1.27c-.247.424-.614.754-1.099.992-.475.237-1.042.356-1.703.356-.908 0-1.631-.217-2.168-.65-.536-.434-.805-1.007-.805-1.719 0-.691.248-1.249.744-1.672.505-.423 1.305-.635 2.399-.635h2.586v-.495c0-.702-.196-1.234-.589-1.595-.392-.372-.965-.557-1.718-.557a4.25 4.25 0 00-1.486.263 3.634 3.634 0 00-1.223.697l-.496-.82a4.28 4.28 0 011.486-.806 5.648 5.648 0 011.827-.294zm-.387 7.416c.62 0 1.151-.14 1.595-.418.444-.29.774-.702.991-1.239v-1.331h-2.555c-1.393 0-2.09.485-2.09 1.455 0 .475.181.852.542 1.13.361.269.867.403 1.517.403zm6.671-10.698h1.099V30.93h-1.099V19.443z" fill="#2B2C34"/><defs><clipPath id="clip0_2615_2"><path fill="#fff" d="M0 0h79v30H0z"/></clipPath></defs></svg>