<svg width="29" height="25" viewBox="0 0 29 25" fill="none" xmlns="http://www.w3.org/2000/svg">
<path d="M6.49833 12.594C8.17949 12.594 9.63434 13.1579 10.8629 14.2857C12.0914 15.4135 12.7057 16.9173 12.7057 18.797C12.7057 20.7393 12.0591 22.2744 10.7659 23.4023C9.53735 24.4674 8.11483 25 6.49833 25C4.68785 25 3.13601 24.3421 1.84281 23.0263C0.61427 21.6479 0 19.7055 0 17.1992C0 10.7456 3.16834 5.01253 9.50502 0L12.2207 2.72557C8.7291 5.92106 6.59532 9.21053 5.8194 12.594H6.49833ZM22.7926 12.594C24.4738 12.594 25.9286 13.1579 27.1572 14.2857C28.3857 15.4135 29 16.9173 29 18.797C29 20.802 28.3534 22.3371 27.0602 23.4023C25.8317 24.4674 24.3768 25 22.6957 25C20.9498 25 19.4303 24.3421 18.1371 23.0263C16.9086 21.6479 16.2943 19.7055 16.2943 17.1992C16.2943 10.7456 19.4627 5.01253 25.7993 0L28.515 2.72557C25.0234 5.92106 22.8896 9.21053 22.1137 12.594H22.7926Z" fill="#A4A5A3"/>
</svg>
