<svg width="85" height="85" viewBox="0 0 85 85" fill="none" xmlns="http://www.w3.org/2000/svg">
<circle cx="42.5" cy="42.5" r="42.5" fill="#D9D9D9"/>
<path fill-rule="evenodd" clip-rule="evenodd" d="M49.7943 55.6305H35.2049C31.9819 55.6305 29.3691 53.0177 29.3691 49.7947V38.1232C29.3691 36.5117 30.6755 35.2053 32.287 35.2053H52.7122C54.3237 35.2053 55.6301 36.5117 55.6301 38.1232V49.7947C55.6301 53.0177 53.0173 55.6305 49.7943 55.6305Z" stroke="#3F4353" stroke-width="1.5" stroke-linecap="round" stroke-linejoin="round"/>
<path d="M36.6641 35.2053V32.2874C36.6641 30.6759 37.9704 29.3695 39.5819 29.3695H45.4177C47.0292 29.3695 48.3356 30.6759 48.3356 32.2874V35.2053" stroke="#3F4353" stroke-width="1.5" stroke-linecap="round" stroke-linejoin="round"/>
<rect x="39.582" y="41.0411" width="5.83576" height="4.37682" rx="0.5" stroke="#3F4353" stroke-width="1.5" stroke-linecap="round" stroke-linejoin="round"/>
<path d="M45.4175 43.2295H50.5238C53.3439 43.2295 55.6301 40.9433 55.6301 38.1232V38.1232" stroke="#3F4353" stroke-width="1.5" stroke-linecap="round" stroke-linejoin="round"/>
<path d="M39.5817 43.2295H34.4754C31.6553 43.2295 29.3691 40.9433 29.3691 38.1232V38.1232" stroke="#3F4353" stroke-width="1.5" stroke-linecap="round" stroke-linejoin="round"/>
</svg>
