<svg width="85" height="85" viewBox="0 0 85 85" fill="none" xmlns="http://www.w3.org/2000/svg">
<circle cx="42.5" cy="42.5" r="42.5" fill="#D9D9D9"/>
<path d="M52.7082 32.2916H54.1665C55.778 32.2916 57.0832 33.5968 57.0832 35.2083V52.7083C57.0832 54.3197 55.778 55.625 54.1665 55.625H30.8332C29.2217 55.625 27.9165 54.3197 27.9165 52.7083V35.2083C27.9165 33.5968 29.2217 32.2916 30.8332 32.2916H32.2915" stroke="#3F4353" stroke-width="1.5" stroke-linecap="round" stroke-linejoin="round"/>
<path fill-rule="evenodd" clip-rule="evenodd" d="M42.4998 33.75C42.4998 31.3335 40.5413 29.375 38.1248 29.375H33.7498C32.9448 29.375 32.2915 30.0283 32.2915 30.8333V49.7917C32.2915 50.5967 32.9448 51.25 33.7498 51.25H38.1248C40.5413 51.25 42.4998 53.2085 42.4998 55.625C42.4998 53.2085 44.4584 51.25 46.8748 51.25H51.2498C52.0548 51.25 52.7082 50.5967 52.7082 49.7917V30.8333C52.7082 30.0283 52.0548 29.375 51.2498 29.375H46.8748C44.4584 29.375 42.4998 31.3335 42.4998 33.75Z" stroke="#3F4353" stroke-width="1.5" stroke-linecap="round" stroke-linejoin="round"/>
<path d="M42.4997 33.75V55.625" stroke="#3F4353" stroke-width="1.5" stroke-linecap="round" stroke-linejoin="round"/>
</svg>
