<svg width="85" height="85" viewBox="0 0 85 85" fill="none" xmlns="http://www.w3.org/2000/svg">
<circle cx="42.5" cy="42.5" r="42.5" fill="#D9D9D9"/>
<path d="M43.871 41.1292L33.5605 51.4396" stroke="#3F4353" stroke-width="1.5" stroke-linecap="round" stroke-linejoin="round"/>
<path d="M34.6731 43.9569L29.6229 42.7639C29.0673 42.6327 28.8719 41.9429 29.2744 41.5389L33.2906 37.5227C33.5604 37.2529 33.9265 37.0983 34.31 37.0954L38.8381 37.056" stroke="#3F4353" stroke-width="1.5" stroke-linecap="round" stroke-linejoin="round"/>
<path fill-rule="evenodd" clip-rule="evenodd" d="M53.99 38.0886L55.1683 32.4186C55.4892 30.8757 54.1242 29.5107 52.5812 29.8315L46.9112 31.0098C45.2414 31.3569 43.7102 32.1838 42.5056 33.3898L37.8535 38.0404C36.0787 39.8152 34.9237 42.1165 34.5592 44.6L34.5431 44.7065C34.3127 46.2917 34.8435 47.8915 35.9752 49.0246V49.0246C37.1069 50.1563 38.7081 50.6871 40.2933 50.4552L40.3998 50.4392C42.8833 50.0761 45.1846 48.9196 46.9594 47.1448L51.61 42.4942C52.816 41.2896 53.6429 39.7584 53.99 38.0886V38.0886Z" stroke="#3F4353" stroke-width="1.5" stroke-linecap="round" stroke-linejoin="round"/>
<path d="M44.5415 31.8746C47.9117 34.173 50.8269 37.0882 53.1253 40.4584" stroke="#3F4353" stroke-width="1.5" stroke-linecap="round" stroke-linejoin="round"/>
<path d="M41.0415 50.3269L42.2344 55.3771C42.3657 55.9327 43.0555 56.1281 43.4594 55.7256L47.4757 51.7094C47.7455 51.4396 47.9 51.0735 47.903 50.69L47.9423 46.1619" stroke="#3F4353" stroke-width="1.5" stroke-linecap="round" stroke-linejoin="round"/>
</svg>
