<svg width="85" height="85" viewBox="0 0 85 85" fill="none" xmlns="http://www.w3.org/2000/svg">
<circle cx="42.5" cy="42.5" r="42.5" fill="#D9D9D9"/>
<path d="M46.439 46.4392C46.7307 45.5638 47.0225 44.6884 47.3143 43.8131C49.2109 36.6643 48.6274 30.099 46.0013 29.5155C44.8341 29.3696 43.667 29.8072 42.9375 30.8285" stroke="#3F4353" stroke-width="1.5" stroke-linecap="round" stroke-linejoin="round"/>
<path d="M42.0622 54.1716C41.3327 55.1928 40.1655 55.6305 38.9984 55.4846C36.3723 54.7552 35.7887 48.3358 37.6853 41.187C37.9771 40.3116 38.2689 39.2904 38.5607 38.5609" stroke="#3F4353" stroke-width="1.5" stroke-linecap="round" stroke-linejoin="round"/>
<path d="M41.041 47.8981C41.9164 47.7522 42.7917 47.4604 43.813 47.3145C50.9618 45.4179 56.3599 41.6247 55.6304 38.9986C55.3386 37.9773 54.3174 37.3937 52.8584 36.9561" stroke="#3F4353" stroke-width="1.5" stroke-linecap="round" stroke-linejoin="round"/>
<path d="M32.1414 48.044C30.6824 47.6063 29.6612 47.0227 29.3694 46.0015C28.6399 43.3754 33.8921 39.5821 41.1868 37.6855C42.0622 37.3937 43.0834 37.2478 43.9588 37.1019" stroke="#3F4353" stroke-width="1.5" stroke-linecap="round" stroke-linejoin="round"/>
<path d="M37.1016 43.959C37.6851 44.6885 38.2687 45.272 38.9982 46.0015C44.2504 51.2537 50.0861 54.0257 52.1287 51.9832C52.8581 50.9619 53.004 49.6489 52.5663 48.6276" stroke="#3F4353" stroke-width="1.5" stroke-linecap="round" stroke-linejoin="round"/>
<path d="M32.5792 36.3725C32.1415 35.2053 32.2874 33.8923 32.871 32.871C34.7676 30.9744 40.7493 33.6005 46.0015 38.8527C46.7309 39.5821 47.3145 40.1657 47.8981 40.8952" stroke="#3F4353" stroke-width="1.5" stroke-linecap="round" stroke-linejoin="round"/>
<path d="M42.5 42.6459C42.6459 42.6459 42.6459 42.5 42.6459 42.5L42.5 42.3541L42.3541 42.5C42.3541 42.5 42.3541 42.6459 42.5 42.6459" stroke="#3F4353" stroke-width="1.5" stroke-linecap="round" stroke-linejoin="round"/>
</svg>
