<svg width="85" height="85" viewBox="0 0 85 85" fill="none" xmlns="http://www.w3.org/2000/svg">
<circle cx="42.5" cy="42.5" r="42.5" fill="#D9D9D9"/>
<path d="M34.1074 54.1666V54.1666C34.1074 51.2223 36.4947 48.835 39.4391 48.835H45.5612C48.5055 48.835 50.8928 51.2223 50.8928 54.1666V54.1666" stroke="#3F4353" stroke-width="1.5" stroke-linecap="round" stroke-linejoin="round"/>
<path d="M46.0607 36.6833C48.0272 38.6498 48.0272 41.8382 46.0607 43.8047C44.0942 45.7713 40.9058 45.7713 38.9393 43.8047C36.9727 41.8382 36.9727 38.6498 38.9393 36.6833C40.9058 34.7167 44.0942 34.7167 46.0607 36.6833" stroke="#3F4353" stroke-width="1.5" stroke-linecap="round" stroke-linejoin="round"/>
<path fill-rule="evenodd" clip-rule="evenodd" d="M45.4167 54.1667H52.7083C54.3198 54.1667 55.625 52.8615 55.625 51.25V33.75C55.625 32.1386 54.3198 30.8334 52.7083 30.8334H32.2917C30.6802 30.8334 29.375 32.1386 29.375 33.75V51.25C29.375 52.8615 30.6802 54.1667 32.2917 54.1667H39.5833L42.5 57.0834L45.4167 54.1667Z" stroke="#3F4353" stroke-width="1.5" stroke-linecap="round" stroke-linejoin="round"/>
</svg>
